<svg width="106" height="43" viewBox="0 0 106 43" fill="none" xmlns="http://www.w3.org/2000/svg">
<path id="Vector" fill-rule="evenodd" clip-rule="evenodd" d="M105.024 0.0600586V42.3662H0.5V0.0600586H105.024ZM22.0825 4.14118H10.7212L3.44751 38.1954H12.0349L16.7703 14.6318H16.8666L23.9862 38.1954H35.3094L42.5254 4.14118H33.938L29.1575 27.7559H29.0611L22.0825 4.14118ZM55.0078 4.14118H45.8892L38.8142 38.1954H47.934L50.9582 23.61H61.7432L58.7195 38.1954H67.8381L74.9119 4.14118H65.7934L63.1075 17.1696H52.3297L55.0078 4.14118ZM91.401 10.2938C94.7649 10.2938 97.1557 11.0241 98.912 11.8508L101.11 5.07016C98.8156 4.00022 94.8677 3.55833 90.6707 3.55833C83.2049 3.55833 75.4953 6.19243 75.4953 14.9779C75.4953 20.4532 79.7907 22.1415 83.4848 23.5933C86.2714 24.6886 88.7158 25.6493 88.7158 27.9998C88.7158 31.5117 84.282 32.0493 81.4487 32.0493C78.475 32.0493 74.8607 31.269 73.0605 30.0956L70.9141 37.0219C73.8866 37.9515 77.9373 38.7841 81.4487 38.7841C89.3498 38.7841 98.0853 36.3433 98.0853 26.9298C98.0853 20.7838 93.4178 18.9254 89.6295 17.4171C87.0421 16.3869 84.8648 15.52 84.8648 13.5619C84.8648 10.8261 87.7933 10.2938 91.401 10.2938Z" fill="#828A9D"/>
</svg>
