<svg width="128" height="29" viewBox="0 0 128 29" fill="none" xmlns="http://www.w3.org/2000/svg">
<path id="Vector" fill-rule="evenodd" clip-rule="evenodd" d="M0 26.0847H1.01177C4.14079 26.0847 4.42623 24.5942 4.42623 21.4052V0.189941L7.61843 3.24004V22.2562C7.61843 25.6281 6.41782 28.302 3.16243 28.94L0 26.0847ZM17.6192 10.7414C20.3364 10.7414 22.2967 12.5949 22.2967 15.1479C22.2967 18.0033 20.4948 19.766 17.6192 19.766C14.995 19.766 13.1937 17.9118 13.1937 15.1165C13.1937 12.5949 15.0582 10.7414 17.6192 10.7414ZM17.6497 22.3469C22.2023 22.3469 25.3313 19.4302 25.3313 15.1165C25.3313 11.0758 22.1072 8.1597 17.6497 8.1597C13.4152 8.1597 10.1591 11.1972 10.1591 15.1165C10.1591 19.3094 13.2882 22.3469 17.6497 22.3469ZM36.8633 13.5974C36.8633 11.6524 35.8507 10.4077 34.239 10.4077C33.0696 10.4077 32.1217 10.9243 30.8572 12.3219V22.0732H27.8866V1.86962H30.8572V10.044C31.901 8.82781 33.4495 8.09827 34.966 8.09827C37.7791 8.09827 39.8346 9.95251 39.8346 13.6888V22.074H36.8633V13.5974ZM52.2497 13.6581C52.2497 11.6832 51.238 10.4677 49.6255 10.4677C48.4568 10.4677 47.5083 10.9843 46.2445 12.3519V22.0726H43.273V8.38939H46.2445V10.104C47.2874 8.88785 48.836 8.15901 50.354 8.15901C53.0712 8.15901 55.2197 9.95112 55.2197 13.6874V22.0726H52.2497V13.6581ZM64.0445 0.189941L66.904 2.99779V19.2493H73.3067L76.087 22.0732H64.0445V0.189941ZM81.3172 10.6506C83.181 10.6506 84.3519 11.8661 84.4783 13.5827H77.6508C78.0619 11.7746 79.293 10.6506 81.3172 10.6506ZM87.1489 20.6603C86.6739 20.2665 85.299 18.9436 85.299 18.9436C84.2247 19.4001 83.2137 19.6131 82.1693 19.6131C79.5777 19.6131 78.0299 18.3069 77.5869 15.9249H87.4162C87.4162 10.6506 85.0128 8.15901 81.2526 8.15901C77.3333 8.15901 74.6147 10.9536 74.6147 15.0858C74.6147 18.8529 77.0806 22.3463 81.5047 22.3463C83.8761 22.3469 85.4181 21.8373 87.1489 20.6603ZM103.623 22.3469L99.4175 12.5983L95.2423 22.3469H94.3556L87.9791 8.37821H91.1466L94.8064 16.57L98.3102 8.37821H100.522L104.042 16.57L107.682 8.36984H110.836L104.509 22.3469H103.623ZM112.285 3.41457C112.285 2.50281 113.043 1.74327 113.959 1.74327C114.877 1.74327 115.635 2.50281 115.635 3.41457C115.635 4.35634 114.877 5.11659 113.959 5.11659C113.043 5.11659 112.285 4.35634 112.285 3.41457ZM112.538 8.37193H115.511V22.0732H112.538V8.37193ZM118.04 21.0708V17.9718C119.969 19.278 121.677 19.8316 122.754 19.8316C123.788 19.8316 124.591 19.4442 124.628 18.5513C124.646 18.0821 124.267 17.5774 123.667 17.1822C123.067 16.7571 122.245 16.3613 121.422 15.876C119.811 14.965 118.136 13.7796 118.136 11.8968C118.136 9.55669 119.858 8.15901 122.814 8.15901C124.14 8.15901 125.469 8.52343 126.986 9.313V12.169C125.31 11.0758 123.74 10.6429 122.73 10.6429C121.624 10.6429 121.106 11.1121 121.139 11.8046C121.171 12.4992 122.007 13.0375 124.554 14.4246C126.951 15.7302 127.65 16.8772 127.65 18.3062C127.65 20.7357 125.659 22.3463 122.972 22.3463C121.234 22.3469 119.906 22.0132 118.04 21.0708Z" fill="#828A9D"/>
</svg>
