<svg width="128" height="40" viewBox="0 0 128 40" fill="none" xmlns="http://www.w3.org/2000/svg">
<path id="Vector" fill-rule="evenodd" clip-rule="evenodd" d="M4.77013 13.3337C4.77013 14.8856 5.18736 15.0038 6.97711 15.0637V15.6005H0.0597856V15.0637C1.49083 15.0038 1.90805 14.8245 1.90805 13.3337V3.31515C1.90805 1.76326 1.49083 1.64497 0.119571 1.58519V1.04838H12.2853L12.3451 4.26917H11.7473C11.2702 2.65877 10.6736 2.12198 7.81156 2.12198H5.54734C4.83118 2.12198 4.71289 2.24155 4.71289 2.8852V7.53703H7.2188C9.54412 7.53703 10.0211 7.11981 10.2717 5.62898H10.8085V10.8189H10.2717C9.97399 9.08891 9.07851 8.6119 7.2188 8.6119H4.71289V13.3235L4.77013 13.3337ZM19.2026 13.3337C19.2026 14.8856 19.6198 15.0038 21.4096 15.0637V15.6005H14.1336V15.0637C15.8635 15.0038 16.3406 14.8245 16.3406 13.3337V3.31515C16.3406 1.76326 15.9844 1.64497 14.1336 1.58519V1.04838H21.4096V1.58519C19.6797 1.64497 19.2026 1.82433 19.2026 3.31515V13.3337ZM36.4972 3.67259C36.4972 2.24155 36.141 1.64497 34.4696 1.46561V0.928811H39.6595V1.46561C38.0491 1.6437 37.6319 2.22883 37.6319 3.67259V15.8841H36.8687L26.8501 4.31497V12.7842C26.8501 14.2152 27.2062 14.8118 28.8778 14.9911V15.5279H23.6878V14.9911C25.2982 14.8131 25.7155 14.2279 25.7155 12.7842V2.98951C25.2385 2.09527 24.6419 1.67931 23.6878 1.49868V0.961884H27.682L36.4488 11.1V3.64588L36.4972 3.67259ZM44.31 10.3508L46.5171 4.56556L48.724 10.3508H44.31ZM54.8043 15.5992V15.0624C53.6595 15.0624 53.4331 14.6452 52.8963 13.2739L47.7064 0.629883H46.9902L41.6222 13.6898C41.2661 14.6439 40.728 14.883 39.8337 15.0612V15.5979H44.5454V15.0739C43.5315 15.0739 43.0545 14.8347 43.0545 14.1198C43.0545 13.522 43.7707 11.853 43.889 11.4485H49.1972C49.3753 11.9256 50.0914 13.5957 50.0914 14.1198C50.0914 14.836 49.5546 15.0739 48.5395 15.0739V15.6107L54.8043 15.5992ZM69.0715 3.67259C69.0715 2.24155 68.7153 1.64497 67.0438 1.46561V0.928811H72.2337V1.46561C70.6234 1.6437 70.2061 2.22883 70.2061 3.67259V15.8841H69.4429L59.4244 4.31497V12.7842C59.4244 14.2152 59.7805 14.8118 61.452 14.9911V15.5279H56.2366V14.9911C57.847 14.8131 58.2643 14.2279 58.2643 12.7842V2.98951C57.7872 2.09527 57.1907 1.67931 56.2366 1.49868V0.961884H60.2309L68.9977 11.1L69.0715 3.67259ZM87.6178 12.2003C86.0659 14.8245 84.0395 16.0164 81.0579 16.0164C76.2878 16.0164 73.4257 12.9151 73.4257 8.20358C73.4257 4.86449 76.0499 0.629883 81.1787 0.629883C82.7306 0.629883 84.8765 1.52412 85.2339 1.52412C85.6512 1.52412 85.7708 1.28498 86.188 0.629883H86.9512L87.2488 5.51958H86.651C85.7567 3.25282 84.2659 1.58391 81.6901 1.58391C78.2301 1.58391 76.7291 5.3415 76.7291 8.14379C76.7291 12.0794 78.3993 14.7634 82.0971 14.7634C84.9591 14.7634 86.511 12.6162 87.1662 11.7106L87.6178 12.2003ZM94.6547 13.3451C94.6547 14.897 95.0721 15.0153 96.862 15.0751V15.6119H89.5856V15.0751C91.3156 15.0153 91.7925 14.836 91.7925 13.3451V3.3266C91.7925 1.77472 91.3753 1.65641 89.5856 1.59663V1.05983H96.862V1.59663C95.1314 1.65641 94.6547 1.83577 94.6547 3.3266V13.3451ZM102.885 10.3635L105.091 4.57828L107.299 10.3635H102.885ZM113.379 15.6119V15.0751C112.234 15.0751 112.008 14.6579 111.471 13.2866L106.281 0.642603H105.565L100.197 13.7025C99.841 14.6566 99.3031 14.8958 98.4081 15.0739V15.6107H103.12V15.0739C102.106 15.0739 101.629 14.8347 101.629 14.1198C101.629 13.522 102.345 11.853 102.464 11.4485H107.772C107.95 11.9256 108.667 13.5957 108.667 14.1198C108.667 14.836 108.13 15.0739 107.114 15.0739V15.6107L113.379 15.6119ZM114.689 15.6119V15.0751C116.06 15.0153 116.477 14.836 116.477 13.3451V3.3266C116.477 1.77472 116.06 1.65641 114.689 1.59663V1.05983H121.428V1.59663C119.818 1.65641 119.401 1.83577 119.401 3.3266V13.6301C119.401 14.5244 119.64 14.8233 121.249 14.8233C123.873 14.8233 125.424 14.3462 126.676 11.7704H127.203L126.19 15.706H114.56V15.5865L114.689 15.6119ZM3.16991 38.763C4.84009 38.7031 5.25604 38.5238 5.25604 37.033V25.7627H3.45993C1.78975 25.7627 1.07487 26.4789 0.597856 28.434H0L0.356169 24.6764H13.238L13.5943 28.434H12.9963C12.5194 26.4064 11.8515 25.7627 10.1343 25.7627H8.34455V37.033C8.34455 38.5849 8.76178 38.7031 10.4307 38.763V39.2998H3.39633V38.763H3.16991ZM20.107 37.033C20.107 38.5849 20.5243 38.7031 22.3141 38.763V39.2998H15.038V38.763C16.768 38.7031 17.2449 38.5238 17.2449 37.033V27.0144C17.2449 25.4625 16.8278 25.3443 15.038 25.2844V24.7476H22.3141V25.2844C20.5841 25.3443 20.107 25.5236 20.107 27.0144V37.033ZM37.6993 24.6281H42.7683V25.1649C41.3971 25.2247 40.9799 25.404 40.9799 26.8949V36.9732C40.9799 38.5251 41.3971 38.6433 42.7683 38.7031V39.2399H36.1258V38.7031C37.5569 38.6433 37.974 38.464 37.974 36.9732V26.6697H37.9143L33.0245 39.4918H32.3097L27.4797 26.6697H27.42V36.5687C27.42 37.9997 27.7761 38.5963 29.4476 38.7757V39.3125H24.2577V38.7757C25.8681 38.5976 26.2853 38.0125 26.2853 36.5687V26.5501C26.2853 25.5363 25.8681 25.1789 24.2577 25.1789V24.6421H29.5659L33.4545 34.7904L37.6993 24.6281ZM44.7972 39.2985V38.7617C46.1685 38.7018 46.5857 38.5226 46.5857 37.0317V27.0132C46.5857 25.4613 46.1685 25.343 44.7972 25.2831V24.7463H57.0087L57.0686 27.9672H56.4707C55.9936 26.3568 55.3971 25.8199 52.535 25.8199H50.2683C49.5521 25.8199 49.4338 25.9396 49.4338 26.5832V31.235H51.9397C54.265 31.235 54.742 30.8178 54.9926 29.327H55.5294V34.5168H54.9926C54.695 32.7869 53.7994 32.3697 51.9397 32.3697H49.4338V37.4388C49.4338 38.333 49.673 38.6319 52.2958 38.6319C54.9188 38.6319 56.4707 38.1549 57.7224 35.579H58.2592L57.2453 39.5147H44.6739V39.2756L44.7972 39.2985ZM60.3161 34.7191H60.8529C61.4507 36.6271 63.3587 38.7133 65.5047 38.7133C67.353 38.7133 68.0106 37.4031 68.0106 36.2685C68.0106 32.8696 60.3784 32.2743 60.3784 28.0982C60.3784 26.0705 62.2864 24.3406 64.5532 24.3406C66.7602 24.3406 67.5348 25.1039 68.4889 25.1039C68.9061 25.1039 69.2051 24.8062 69.2521 24.3406H69.7889V29.0523H69.2521C68.6543 26.9051 67.1049 25.3544 65.1371 25.3544C63.5267 25.3544 62.8703 26.428 62.8703 27.4406C62.8703 30.4222 70.5026 30.4934 70.5026 35.6706C70.5026 37.9959 68.6543 39.7258 65.9702 39.7258C63.4059 39.7258 62.7495 38.8316 61.7343 38.8316C61.3782 38.8316 61.1365 39.0708 60.9711 39.5949H60.2079L60.3161 34.7191Z" fill="#828A9D"/>
</svg>
