<svg width="128" height="24" viewBox="0 0 128 24" fill="none" xmlns="http://www.w3.org/2000/svg">
<path id="Vector" fill-rule="evenodd" clip-rule="evenodd" d="M3.79939 10.4755H7.61061L11.2952 10.4784H11.3952L11.3982 10.4785L9.47083 13.8168L7.60469 17.0541H7.60178L7.70085 17.2261L11.3525 23.5567L11.3982 23.6358L11.3965 23.6359L11.3982 23.6388H11.3952H3.79939L0.0222541 17.0957L0 17.0571L0.00105397 17.0561L0 17.0542L3.79939 10.4755ZM11.4092 17.0513H19.0028L22.7904 10.4785L22.794 10.4848L22.7993 10.4756L26.5987 17.0572L22.7993 23.6359H15.2005H15.1946L14.0453 21.633L11.8716 17.8647L11.4052 17.0583L11.4011 17.0513H11.4092ZM5.70352 7.18177L9.49403 0.600098L9.49997 0.603053H17.0987L20.7389 6.90881L20.8981 7.18455L20.0796 8.60179L18.994 10.4844L17.0987 13.7693L13.3023 7.18177H5.70352ZM51.9112 9.35182C53.3142 8.8085 54.8095 8.54337 56.3137 8.57124L56.3049 8.56829C58.0376 8.56829 62.0734 9.06503 62.0734 13.6656V23.6387H58.8418V22.4945C57.8228 23.4601 56.4636 23.984 55.0601 23.9522C52.47 23.9522 49.8533 22.2461 49.8533 18.9552C49.8533 16.5988 51.7102 14.053 55.7667 14.053H58.8299C58.8211 12.6367 58.6939 11.5427 55.8288 11.5427C54.6787 11.5427 52.8426 11.8828 52.0768 12.2524L51.7811 12.4032V9.39912L51.9112 9.35182ZM57.3186 20.542C57.9019 20.2515 58.4146 19.837 58.8211 19.3278L58.8181 16.924H55.9471C54.1642 16.924 53.1412 17.678 53.1412 18.9404C53.1412 20.203 54.04 21.0102 55.4445 21.0102C56.0959 20.9924 56.7354 20.8326 57.3186 20.542ZM124.413 19.3485V11.7822H127.955V8.87872H124.407V4.01198L121.155 5.15327V8.87872H119.07V9.52039V11.59V11.7852H121.155V20.0433C121.155 23.6712 123.908 23.9492 124.753 23.9492C125.775 23.9761 126.795 23.8637 127.787 23.615L127.952 23.5796V20.6702L127.686 20.7559C127.216 20.891 126.729 20.9607 126.241 20.9629C125.054 20.9629 124.413 20.7057 124.413 19.3485ZM48.1414 4.1332H44.954L44.957 17.8199L36.5274 4.1332H33.3459V23.6475H36.5452V10.0644L45.0576 23.6475H48.1414V4.1332ZM113.169 23.9669C116.834 23.9669 118.756 21.7481 118.756 19.5343C118.756 17.452 117.818 16.2788 115.307 15.1796L114.886 14.9992C114.657 14.9087 114.408 14.7978 114.123 14.67C113.923 14.5806 113.705 14.4829 113.462 14.3782L113.307 14.3132L113.304 14.3114C112.5 13.954 111.51 13.5135 111.51 12.6782C111.51 11.5782 113.086 11.4807 113.561 11.4807C114.886 11.4913 116.189 11.822 117.358 12.4445L117.654 12.5864V9.45823L117.539 9.39912C116.236 8.87583 114.844 8.60687 113.441 8.60672C109.265 8.60672 108.154 11.3328 108.154 12.7816C108.154 15.4215 110.06 16.3148 110.971 16.7418L111.025 16.7673C111.876 17.1671 112.425 17.4037 113.018 17.6598L113.095 17.6928L113.604 17.9086C114.89 18.4792 115.41 18.7483 115.41 19.6175C115.41 20.546 114.558 21.0752 113.08 21.0752C111.546 21.0241 110.046 20.6193 108.695 19.8925L108.399 19.7299V22.8936L108.512 22.9527C109.975 23.6151 111.562 23.9607 113.169 23.9669ZM93.8283 16.3356C93.8283 10.2448 98.0302 8.62151 100.522 8.62151L100.529 8.6156C102.397 8.6156 103.911 9.26605 105.014 10.5434C106.682 12.483 106.977 15.3333 106.682 17.3675L106.663 17.536H97.2352C97.2823 18.5679 97.7644 21.019 101.194 21.019C102.59 21.0266 103.964 20.67 105.179 19.9842L105.49 19.7979V22.8877L105.371 22.9439C104.302 23.4465 103.201 23.958 100.754 23.958C99.597 23.958 93.8283 23.5884 93.8283 16.3356ZM100.384 11.525C98.3051 11.525 97.3202 13.3405 97.2377 14.7301H103.399C103.341 13.5179 102.637 11.525 100.384 11.525ZM89.9318 23.6475L93.8431 4.1332L90.6203 4.12434C90.5378 4.55602 88.2164 17.1842 88.1933 17.3408C88.1718 17.2666 87.3785 14.1223 86.5662 10.9077C85.7944 7.84912 85.006 4.72691 84.8524 4.12434H81.6736L78.3768 17.3586L75.7158 4.12434H72.3096L76.3988 23.6387H79.6512L83.1552 10.0644L86.6141 23.6475H89.9318ZM71.8987 11.7822V8.87872H68.3624V4.01198L65.0982 5.15327V8.87872H63.0285V9.52039V11.59V11.7852H65.0982V20.0433C65.0982 23.6712 67.8657 23.9492 68.7113 23.9492C69.7309 23.9733 70.7491 23.8609 71.739 23.615L71.8869 23.5796V20.6702L71.6237 20.753C71.1527 20.8941 70.6635 20.9648 70.1719 20.9629C68.9922 20.9629 68.3506 20.6997 68.3506 19.3485V11.7822H71.8987Z" fill="#828A9D"/>
</svg>
