<svg width="128" height="65" viewBox="0 0 128 65" fill="none" xmlns="http://www.w3.org/2000/svg">
<g id="62ad31fb35688478b994ca11_google-salmon.svg" clip-path="url(#clip0_1_366)">
<path id="Vector" d="M11.5 41.6997L15.2177 48.0827L22.4371 49.646L17.5154 55.1542L18.2595 62.5034L11.5 59.5247L4.74049 62.5034L5.48459 55.1542L0.562866 49.646L7.78228 48.0827L11.5 41.6997Z" fill="#FF6955"/>
<path id="Vector_2" d="M38.5 41.6997L42.2177 48.0827L49.4371 49.646L44.5154 55.1542L45.2595 62.5034L38.5 59.5247L31.7405 62.5034L32.4846 55.1542L27.5628 49.646L34.7823 48.0827L38.5 41.6997Z" fill="#FF6955"/>
<path id="Vector_3" d="M65 41.6997L68.8794 48.0827L76.4127 49.646L71.277 55.1542L72.0534 62.5034L65 59.5247L57.9466 62.5034L58.723 55.1542L53.5873 49.646L61.1206 48.0827L65 41.6997Z" fill="#FF6955"/>
<path id="Vector_4" d="M89.5 41.6997L93.2177 48.0827L100.437 49.646L95.5154 55.1542L96.2595 62.5034L89.5 59.5247L82.7405 62.5034L83.4846 55.1542L78.5628 49.646L85.7823 48.0827L89.5 41.6997Z" fill="#FF6955"/>
<path id="Vector_5" d="M116.5 41.6997L120.218 48.0827L127.437 49.646L122.515 55.1542L123.26 62.5034L116.5 59.5247L109.74 62.5034L110.485 55.1542L105.563 49.646L112.782 48.0827L116.5 41.6997Z" fill="#FF6955"/>
<path id="Vector_6" fill-rule="evenodd" clip-rule="evenodd" d="M11.5717 0.699707H10.7924C8.58696 0.832555 6.42562 1.55584 4.64656 2.86956C2.79399 4.19804 1.3531 6.10219 0.603249 8.25728C-0.220117 10.619 -0.205414 13.276 0.676764 15.623C1.61775 18.1766 3.52914 20.3464 5.92572 21.6306C7.92532 22.7229 10.2484 23.151 12.4979 22.9296C14.821 22.7377 17.1 21.7635 18.7467 20.1103C21.2168 17.778 21.9814 14.1026 21.452 10.8404H11.1747V13.8812C12.8018 13.891 14.4289 13.8877 16.0561 13.8845C16.8696 13.8828 17.6832 13.8812 18.4968 13.8812C18.3203 15.3868 17.7763 16.9367 16.6001 17.9552C15.1004 19.4017 12.9537 20.0365 10.8953 19.9184C8.68988 19.8446 6.55795 18.7818 5.16117 17.0843C3.70557 15.3425 3.07335 12.9808 3.38211 10.7371C3.66147 8.46394 4.95533 6.33837 6.86671 5.08369C8.61636 3.88806 10.8659 3.48952 12.9537 3.93234C14.3652 4.19804 15.6591 4.95084 16.7324 5.92506C17.1271 5.51197 17.5313 5.10851 17.937 4.70367C18.2416 4.39972 18.547 4.09488 18.8496 3.78473C16.9382 1.85106 14.277 0.758751 11.5717 0.699707ZM73.6127 1.37451H70.236C70.236 3.70084 70.2377 6.02717 70.2395 8.35296V8.36217V8.36379V8.36542V8.36704C70.243 13.0123 70.2465 17.6554 70.236 22.2919C71.0767 22.3139 71.9263 22.3112 72.7715 22.3084C73.0526 22.3075 73.3331 22.3066 73.6127 22.3066V1.37451ZM28.6709 8.93361C30.5926 8.56879 32.6744 8.97739 34.2612 10.1302C35.7025 11.1517 36.707 12.7569 37.0127 14.5081C37.4058 16.5365 36.9108 18.7546 35.6006 20.3598C34.1884 22.1547 31.8737 23.1179 29.6172 22.9719C27.5499 22.8552 25.5409 21.8191 24.3181 20.1263C22.935 18.2584 22.6002 15.6901 23.3572 13.5012C24.1142 11.1517 26.2543 9.3568 28.6709 8.93361ZM29.1077 11.7062C28.3215 11.9105 27.5936 12.3629 27.0695 13.005C25.6574 14.6978 25.7447 17.4558 27.3025 19.0319C28.1905 19.9366 29.5298 20.3598 30.7673 20.1117C31.9174 19.9074 32.9219 19.134 33.4751 18.1125C34.4359 16.376 34.1593 13.9827 32.689 12.6256C31.7427 11.75 30.3597 11.3852 29.1077 11.7062ZM51.0231 10.672C49.2985 9.12453 46.7801 8.51137 44.4754 8.93474C41.9876 9.34351 39.7898 11.0808 38.9503 13.3583C38.1109 15.5919 38.4314 18.2197 39.9119 20.1322C41.2245 21.8695 43.4071 22.9206 45.6202 22.979C47.9401 23.0812 50.2905 22.1177 51.7405 20.3658C54.1367 17.592 53.8315 13.0809 51.0231 10.672ZM42.7966 12.9933C43.346 12.3655 44.1091 11.9129 44.9333 11.7086C46.2307 11.3874 47.6806 11.7378 48.6727 12.6137C50.2295 13.9714 50.5195 16.3657 49.5274 18.1176C48.9474 19.1395 47.879 19.8986 46.6885 20.1176C45.3454 20.3804 43.8955 19.9132 42.9644 18.9643C41.3924 17.373 41.3313 14.6576 42.7966 12.9933ZM57.5967 9.80043C59.3478 8.72942 61.6776 8.43192 63.5657 9.35418C64.1596 9.60705 64.6468 10.0384 65.1189 10.4698C65.1265 10.269 65.1265 10.0645 65.1265 9.85807C65.1265 9.65168 65.1265 9.44343 65.1341 9.23517C65.6442 9.24261 66.1543 9.24261 66.6663 9.24261C67.1783 9.24261 67.6922 9.24261 68.21 9.25005V22.3699C68.1947 24.3483 67.677 26.4457 66.2152 27.8886C64.6164 29.4802 62.1648 29.9711 59.9569 29.6439C57.5967 29.3017 55.5411 27.6208 54.6274 25.4937C55.1948 25.2258 55.7798 24.9923 56.3679 24.7576C56.7267 24.6144 57.0867 24.4707 57.4444 24.3186C57.9774 25.5383 59.0585 26.5796 60.4137 26.8176C61.7689 27.0556 63.3373 26.7283 64.2205 25.6276C65.1646 24.4971 65.1646 22.9501 65.1189 21.5667C64.4184 22.236 63.6114 22.831 62.6369 23.0542C60.5203 23.6343 58.1906 22.9203 56.5613 21.522C54.9168 20.1238 53.9422 17.9669 54.0336 15.8249C54.0793 13.4002 55.4802 11.0648 57.5967 9.80043ZM60.7487 11.7044C59.8199 11.8532 58.9519 12.3589 58.3581 13.0581C56.9267 14.7241 56.9267 17.3867 58.3733 19.023C59.1956 19.9899 60.5203 20.5254 61.7994 20.3915C63.0023 20.2725 64.1139 19.5288 64.7077 18.5024C65.7127 16.762 65.5452 14.3968 64.19 12.8796C63.3525 11.9424 62.0126 11.4813 60.7487 11.7044ZM84.162 9.20684C81.8421 8.34603 79.0552 8.90045 77.2475 10.5345C74.4305 13.0586 74.1894 17.7565 76.6901 20.5578C78.2116 22.3378 80.7122 23.2132 83.0623 22.936C85.1863 22.7463 87.1598 21.5499 88.3348 19.8429C87.9205 19.573 87.5062 19.3067 87.092 19.0405C86.6777 18.7742 86.2634 18.5079 85.8492 18.238C85.5178 18.6465 85.1713 19.0696 84.7344 19.3906C83.6347 20.2368 82.068 20.3973 80.7574 19.945C79.8235 19.6387 79.1305 18.88 78.6786 18.0483C80.313 17.3918 81.9438 16.7389 83.5745 16.086C85.2052 15.4331 86.8359 14.7802 88.4704 14.1236C87.7623 12.0373 86.3614 10.0093 84.162 9.20684ZM78.1513 15.6848C78.1363 14.824 78.3472 13.9486 78.8594 13.2337C79.6578 12.0956 81.1491 11.3516 82.5802 11.5996C83.469 11.7309 84.3427 12.227 84.7043 13.044C82.52 13.934 80.3356 14.8094 78.1513 15.6848Z" fill="white"/>
</g>
<defs>
<clipPath id="clip0_1_366">
<rect width="128" height="64" fill="white" transform="translate(0 0.699707)"/>
</clipPath>
</defs>
</svg>
