<svg width="128" height="76" viewBox="0 0 128 76" fill="none" xmlns="http://www.w3.org/2000/svg">
<g id="62ad3206cf4bfab06ea57767_trust%20pilot.svg" clip-path="url(#clip0_1_377)">
<path id="Vector" d="M0 52.9854H23.0625V75.973H0V52.9854ZM24.9844 52.9854H48.0469V75.973H24.9844V52.9854ZM49.9688 52.9854H73.0312V75.973H49.9688V52.9854ZM74.9531 52.9854H98.0156V75.973H74.9531V52.9854ZM99.9375 52.9854H123V75.973H99.9375V52.9854Z" fill="#FF6955"/>
<path id="Vector_2" d="M11.5313 68.4779L15.0388 67.5919L16.5042 72.0936L11.5313 68.4779ZM19.6032 62.6591H13.4292L11.5313 56.8643L9.6335 62.6591H3.45947L8.45635 66.2509L6.5585 72.0457L11.5554 68.4539L14.6304 66.2509L19.6032 62.6591ZM36.5157 68.4779L40.0232 67.5919L41.4886 72.0936L36.5157 68.4779ZM44.5876 62.6591H38.4136L36.5157 56.8643L34.6179 62.6591H28.4439L33.4407 66.2509L31.5429 72.0457L36.5398 68.4539L39.6148 66.2509L44.5876 62.6591ZM61.5001 68.4779L65.0075 67.5919L66.473 72.0936L61.5001 68.4779ZM69.572 62.6591H63.398L61.5001 56.8643L59.6023 62.6591H53.4282L58.4251 66.2509L56.5273 72.0457L61.5241 68.4539L64.5991 66.2509L69.572 62.6591ZM86.4845 68.4779L89.9919 67.5919L91.4573 72.0936L86.4845 68.4779ZM94.5564 62.6591H88.3823L86.4845 56.8643L84.5866 62.6591H78.4126L83.4095 66.2509L81.5116 72.0457L86.5085 68.4539L89.5835 66.2509L94.5564 62.6591ZM111.469 68.4779L114.976 67.5919L116.442 72.0936L111.469 68.4779ZM119.541 62.6591H113.367L111.469 56.8643L109.571 62.6591H103.397L108.394 66.2509L106.496 72.0457L111.493 68.4539L114.568 66.2509L119.541 62.6591Z" fill="white"/>
<path id="Vector_3" d="M33.3276 12.082H46.3201V14.41H41.2044V27.533H38.4004V14.41H33.3062L33.3276 12.082ZM45.7636 16.3465H48.1609V18.5096H48.2037C48.2894 18.2006 48.4392 17.9122 48.6532 17.6238C48.8673 17.3354 49.1241 17.0675 49.4452 16.8409C49.7449 16.5937 50.0873 16.4083 50.4726 16.2641C50.8365 16.1199 51.2218 16.0375 51.6071 16.0375C51.9067 16.0375 52.1208 16.0581 52.2278 16.0581C52.3348 16.0787 52.4633 16.0993 52.5703 16.0993V18.4684C52.399 18.4272 52.2064 18.4066 52.0138 18.386C51.8211 18.3654 51.6499 18.3448 51.4572 18.3448C51.0291 18.3448 50.6225 18.4272 50.2372 18.592C49.8519 18.7569 49.5308 19.0041 49.2312 19.3131C48.9529 19.6427 48.7175 20.0341 48.5462 20.508C48.375 20.9818 48.2894 21.538 48.2894 22.1561V27.4712H45.7208L45.7636 16.3465ZM64.3428 27.533H61.8171V25.9673H61.7743C61.4532 26.5442 60.9823 26.9768 60.3615 27.327C59.7408 27.6772 59.0987 27.842 58.4565 27.842C56.9368 27.842 55.8238 27.4918 55.1388 26.7502C54.4539 26.0291 54.1114 24.9166 54.1114 23.454V16.3465H56.68V23.2067C56.68 24.1956 56.8726 24.896 57.2793 25.2875C57.6646 25.6995 58.2211 25.9055 58.9274 25.9055C59.4626 25.9055 59.9121 25.8231 60.2759 25.6583C60.6398 25.4935 60.9395 25.2875 61.1535 25.0197C61.389 24.7518 61.5388 24.4222 61.6458 24.0514C61.7528 23.6806 61.7957 23.2685 61.7957 22.8359V16.3465H64.3642V27.533H64.3428ZM68.7093 23.9484C68.795 24.6694 69.0732 25.1639 69.5655 25.4729C70.0578 25.7613 70.6572 25.9055 71.3421 25.9055C71.5775 25.9055 71.8558 25.8849 72.1555 25.8437C72.4551 25.8025 72.7548 25.7407 73.0117 25.6377C73.2899 25.5347 73.504 25.3905 73.6752 25.1845C73.8464 24.9785 73.9321 24.7312 73.9106 24.4222C73.8892 24.1132 73.7822 23.8454 73.5468 23.6394C73.3113 23.4334 73.0331 23.2891 72.6906 23.1449C72.3481 23.0213 71.9414 22.9183 71.4919 22.8359C71.0424 22.7535 70.5929 22.6505 70.122 22.5475C69.6511 22.4445 69.1802 22.3209 68.7307 22.1767C68.2812 22.0325 67.896 21.8471 67.5321 21.5792C67.1896 21.332 66.8899 21.023 66.6973 20.6316C66.4833 20.2402 66.3762 19.7869 66.3762 19.2101C66.3762 18.592 66.5261 18.0976 66.8471 17.6856C67.1468 17.2736 67.5535 16.9439 68.0244 16.6967C68.4953 16.4495 69.0304 16.2641 69.6083 16.1611C70.1863 16.0581 70.7428 16.0169 71.2565 16.0169C71.8558 16.0169 72.4337 16.0787 72.9688 16.2023C73.504 16.3259 74.0177 16.5113 74.4458 16.7997C74.8953 17.0676 75.2591 17.4384 75.5374 17.871C75.8371 18.3036 76.0083 18.8393 76.0939 19.4573H73.4183C73.2899 18.8599 73.0117 18.4684 72.5836 18.2624C72.1341 18.0564 71.6418 17.9534 71.0638 17.9534C70.8926 17.9534 70.6572 17.974 70.4217 17.9946C70.1648 18.0358 69.9508 18.077 69.7154 18.1594C69.5013 18.2418 69.3087 18.3654 69.1588 18.5096C69.009 18.6539 68.9234 18.8599 68.9234 19.1071C68.9234 19.4161 69.0304 19.6427 69.2445 19.8281C69.4585 20.0135 69.7368 20.1577 70.1006 20.302C70.4431 20.4256 70.8498 20.5286 71.2993 20.611C71.7488 20.6934 72.2197 20.7964 72.6906 20.8994C73.1615 21.0024 73.611 21.126 74.0605 21.2702C74.51 21.4144 74.9167 21.5998 75.2591 21.8677C75.6016 22.1149 75.9013 22.4239 76.1153 22.7947C76.3294 23.1655 76.4364 23.6394 76.4364 24.175C76.4364 24.8342 76.2866 25.3905 75.9655 25.8643C75.6444 26.3175 75.2377 26.709 74.7454 26.9974C74.2531 27.2858 73.6752 27.4918 73.0759 27.636C72.4551 27.7596 71.8558 27.842 71.2565 27.842C70.5287 27.842 69.8438 27.7596 69.223 27.5948C68.6023 27.43 68.0458 27.1828 67.5963 26.8738C67.1468 26.5442 66.7829 26.1527 66.5261 25.6583C66.2692 25.1845 66.1194 24.6076 66.098 23.9278H68.6879V23.9484H68.7093ZM77.1641 16.3465H79.112V12.9679H81.6805V16.3259H83.9922V18.1594H81.6805V24.1338C81.6805 24.4016 81.7019 24.6076 81.7233 24.8136C81.7447 24.9991 81.8089 25.1639 81.8732 25.2875C81.9588 25.4111 82.0872 25.5141 82.237 25.5759C82.4083 25.6377 82.6223 25.6789 82.922 25.6789C83.0932 25.6789 83.2859 25.6789 83.4571 25.6583C83.6283 25.6377 83.821 25.6171 83.9922 25.5759V27.4918C83.714 27.533 83.4357 27.5536 83.1574 27.5742C82.8792 27.6154 82.6223 27.6154 82.3227 27.6154C81.6377 27.6154 81.1026 27.5536 80.6959 27.43C80.2892 27.3064 79.9681 27.121 79.7327 26.8944C79.4972 26.6472 79.3474 26.3587 79.2618 26.0085C79.1762 25.6583 79.1334 25.2257 79.112 24.7724V18.18H77.1641V16.3053V16.3465ZM85.7902 16.3465H88.2089V17.871H88.2517C88.6156 17.2118 89.1079 16.7585 89.75 16.4701C90.3922 16.1817 91.0771 16.0375 91.8477 16.0375C92.7681 16.0375 93.5601 16.1817 94.245 16.5113C94.93 16.8203 95.4865 17.2324 95.936 17.7886C96.3855 18.3242 96.7279 18.9629 96.942 19.6839C97.156 20.405 97.2845 21.1878 97.2845 21.9913C97.2845 22.7535 97.1774 23.4746 96.9848 24.175C96.7708 24.8754 96.4711 25.5141 96.0644 26.0497C95.6577 26.5854 95.144 27.018 94.5019 27.3476C93.8597 27.6772 93.132 27.842 92.2758 27.842C91.9119 27.842 91.5266 27.8008 91.1627 27.739C90.7989 27.6772 90.435 27.5742 90.0925 27.43C89.75 27.2858 89.429 27.1004 89.1507 26.8738C88.8511 26.6472 88.6156 26.3793 88.423 26.0909H88.3802L88.3801 31.6739H85.8116V16.3465H85.7902ZM94.7587 21.9501C94.7587 21.4556 94.6945 20.9612 94.5447 20.4874C94.4162 20.0135 94.2022 19.6015 93.9239 19.2307C93.6457 18.8599 93.3032 18.5715 92.9179 18.3448C92.5112 18.1182 92.0403 18.0152 91.5266 18.0152C90.4564 18.0152 89.643 18.3654 89.0865 19.0865C88.5514 19.8075 88.2731 20.7758 88.2731 21.9707C88.2731 22.5475 88.3373 23.0625 88.4872 23.5364C88.637 24.0102 88.8296 24.4222 89.1293 24.7724C89.4076 25.1227 89.75 25.3905 90.1567 25.5965C90.5634 25.8025 91.0129 25.9055 91.548 25.9055C92.1474 25.9055 92.6183 25.7819 93.0249 25.5553C93.4316 25.3287 93.7527 25.0197 94.031 24.6694C94.2878 24.2986 94.4805 23.8866 94.5875 23.4128C94.6945 22.9183 94.7587 22.4445 94.7587 21.9501ZM99.2751 12.082H101.844V14.41H99.2751V12.082ZM99.2751 16.3465H101.844V27.533H99.2751V16.3465ZM104.134 12.082H106.702V27.533H104.134V12.082ZM114.537 27.842C113.616 27.842 112.781 27.6978 112.054 27.3888C111.326 27.0798 110.727 26.6884 110.213 26.1733C109.721 25.6583 109.335 25.0197 109.078 24.2986C108.822 23.5776 108.672 22.7741 108.672 21.9295C108.672 21.0848 108.8 20.302 109.078 19.5809C109.335 18.8599 109.721 18.2418 110.213 17.7062C110.705 17.1912 111.326 16.7791 112.054 16.4907C112.781 16.2023 113.616 16.0375 114.537 16.0375C115.457 16.0375 116.292 16.1817 117.019 16.4907C117.747 16.7791 118.347 17.1912 118.86 17.7062C119.353 18.2212 119.738 18.8599 119.995 19.5809C120.252 20.302 120.401 21.0848 120.401 21.9295C120.401 22.7947 120.273 23.5776 119.995 24.2986C119.716 25.0197 119.353 25.6377 118.86 26.1733C118.368 26.6884 117.747 27.1004 117.019 27.3888C116.292 27.6772 115.478 27.842 114.537 27.842ZM114.537 25.8849C115.093 25.8849 115.607 25.7613 116.013 25.5347C116.442 25.3081 116.763 24.9991 117.041 24.6282C117.319 24.2574 117.512 23.8248 117.64 23.3716C117.769 22.8977 117.833 22.4239 117.833 21.9295C117.833 21.4556 117.769 20.9818 117.64 20.508C117.512 20.0341 117.319 19.6221 117.041 19.2513C116.763 18.8805 116.42 18.5921 116.013 18.3654C115.585 18.1388 115.093 18.0152 114.537 18.0152C113.98 18.0152 113.466 18.1388 113.06 18.3654C112.632 18.5921 112.31 18.9011 112.032 19.2513C111.754 19.6221 111.561 20.0341 111.433 20.508C111.304 20.9818 111.24 21.4556 111.24 21.9295C111.24 22.4239 111.304 22.8977 111.433 23.3716C111.561 23.8454 111.754 24.2574 112.032 24.6282C112.31 24.9991 112.653 25.3081 113.06 25.5347C113.488 25.7819 113.98 25.8849 114.537 25.8849ZM121.172 16.3465H123.12V12.9679H125.688V16.3259H128V18.1594H125.688V24.1338C125.688 24.4016 125.71 24.6076 125.731 24.8136C125.753 24.9991 125.817 25.1639 125.881 25.2875C125.967 25.4111 126.095 25.5141 126.245 25.5759C126.416 25.6377 126.63 25.6789 126.93 25.6789C127.101 25.6789 127.294 25.6789 127.465 25.6583C127.636 25.6377 127.829 25.6171 128 25.5759V27.4918C127.722 27.533 127.444 27.5536 127.165 27.5742C126.887 27.6154 126.63 27.6154 126.33 27.6154C125.646 27.6154 125.11 27.5536 124.704 27.43C124.297 27.3064 123.976 27.121 123.741 26.8944C123.505 26.6472 123.355 26.3587 123.27 26.0085C123.184 25.6583 123.141 25.2257 123.12 24.7724V18.18H121.172V16.3053V16.3465Z" fill="white"/>
<path id="Vector_4" d="M30.6939 11.9601H18.9674L15.3576 0.979492L11.7265 11.9601L0 11.9391L9.4837 18.7336L5.85255 29.7142L15.3363 22.9197L24.82 29.7142L21.2102 18.7336L30.6939 11.9601Z" fill="white"/>
<path id="Vector_5" d="M22.2042 20.9358L21.3292 18.6123L15.0205 22.5307L22.2042 20.9358Z" fill="white"/>
</g>
<defs>
<clipPath id="clip0_1_377">
<rect width="128" height="75" fill="white" transform="translate(0 0.979492)"/>
</clipPath>
</defs>
</svg>
